<?xml version="1.0" encoding="utf-8"?><!DOCTYPE svg PUBLIC "-//W3C//DTD SVG 1.1//EN" "http://www.w3.org/Graphics/SVG/1.1/DTD/svg11.dtd"><svg version="1.1" xmlns="http://www.w3.org/2000/svg" xmlns:xlink="http://www.w3.org/1999/xlink" width="24" height="24" viewBox="0 0 24 24" data-code="58167" data-tags="devices_other"><g fill="#444" transform="scale(0.0234375 0.0234375)"><path d="M896 768v-342h-170v342h170zM938 342c22 0 44 20 44 42v426c0 22-22 44-44 44h-256c-22 0-42-22-42-44v-426c0-22 20-42 42-42h256zM470 746c36 0 64-28 64-64s-28-64-64-64-64 28-64 64 28 64 64 64zM554 512v76c26 24 44 56 44 94s-18 72-44 96v76h-170v-76c-26-24-42-58-42-96s16-70 42-94v-76h170zM128 256v512h170v86h-170c-46 0-86-40-86-86v-512c0-46 40-86 86-86h768v86h-768z" /></g></svg>